<svg width="1152" height="226" viewBox="0 0 1152 226" fill="none" xmlns="http://www.w3.org/2000/svg">
<rect width="1152" height="226" fill="black"/>
<rect width="1072" height="1" transform="translate(40 40)" fill="white" fill-opacity="0.2"/>
<rect width="16" height="1.5" transform="translate(1096 41)" fill="white" fill-opacity="0.2"/>
<rect width="16" height="1.5" transform="translate(40 41)" fill="white" fill-opacity="0.2"/>
<path d="M42.66 97.936V100.414H47.042V102.01H42.66V106H40.826V96.34H47.728V97.936H42.66ZM54.8188 104.124H50.7168L50.0168 106H48.0568L52.0188 96.34H53.5168L57.4788 106H55.5188L54.8188 104.124ZM54.2448 102.598L52.7608 98.664L51.2908 102.598H54.2448ZM59.0561 96.34H60.8901V104.404H65.8741V106H59.0561V96.34ZM71.2673 106.154C69.9699 106.154 68.9573 105.799 68.2293 105.09C67.5106 104.381 67.1513 103.321 67.1513 101.912V100.4C67.1513 98.9907 67.5153 97.9313 68.2433 97.222C68.9713 96.5127 69.9839 96.158 71.2813 96.158C72.4666 96.158 73.4093 96.452 74.1093 97.04C74.8186 97.6187 75.1733 98.426 75.1733 99.462V99.574H73.3393V99.518C73.3393 98.9767 73.1573 98.552 72.7933 98.244C72.4293 97.9267 71.9253 97.768 71.2813 97.768C70.5159 97.768 69.9419 97.992 69.5593 98.44C69.1859 98.888 68.9993 99.574 68.9993 100.498V101.884C68.9993 102.771 69.1906 103.429 69.5733 103.858C69.9559 104.287 70.5299 104.502 71.2953 104.502C71.9393 104.502 72.4386 104.353 72.7933 104.054C73.1573 103.746 73.3393 103.326 73.3393 102.794V102.724H75.1593V102.794C75.1593 103.858 74.8093 104.684 74.1093 105.272C73.4093 105.86 72.4619 106.154 71.2673 106.154ZM81.2472 106.154C79.9965 106.154 79.0212 105.799 78.3212 105.09C77.6212 104.381 77.2712 103.321 77.2712 101.912V100.4C77.2712 98.9907 77.6258 97.9313 78.3352 97.222C79.0538 96.5127 80.0432 96.158 81.3032 96.158C82.5445 96.158 83.5198 96.5127 84.2292 97.222C84.9385 97.9313 85.2932 98.9907 85.2932 100.4V101.912C85.2932 103.312 84.9292 104.371 84.2012 105.09C83.4825 105.799 82.4978 106.154 81.2472 106.154ZM81.3032 104.502C82.7405 104.502 83.4592 103.629 83.4592 101.884V100.498C83.4592 98.678 82.7405 97.768 81.3032 97.768C80.5658 97.768 80.0152 97.992 79.6512 98.44C79.2965 98.888 79.1192 99.574 79.1192 100.498V101.884C79.1192 102.771 79.2965 103.429 79.6512 103.858C80.0152 104.287 80.5658 104.502 81.3032 104.502ZM95.5811 96.34V106H93.7471L89.2811 99.602V106H87.4471V96.34H89.2811L93.7471 102.752V96.34H95.5811ZM105.517 102.038C105.228 102.169 104.892 102.234 104.509 102.234C103.669 102.234 102.993 101.982 102.479 101.478C101.966 100.974 101.709 100.302 101.709 99.462V99.168C101.709 98.2347 102.008 97.5067 102.605 96.984C103.203 96.452 104.019 96.186 105.055 96.186C106.11 96.186 106.931 96.4473 107.519 96.97C108.117 97.4833 108.415 98.1973 108.415 99.112V99.406C108.415 100.125 108.177 100.89 107.701 101.702L105.209 106H103.235L105.517 102.038ZM105.055 100.708C105.531 100.708 105.9 100.591 106.161 100.358C106.432 100.115 106.567 99.784 106.567 99.364V99.098C106.567 98.6687 106.432 98.3373 106.161 98.104C105.9 97.8613 105.531 97.74 105.055 97.74C104.579 97.74 104.206 97.8613 103.935 98.104C103.674 98.3467 103.543 98.6827 103.543 99.112V99.35C103.543 99.7793 103.674 100.115 103.935 100.358C104.206 100.591 104.579 100.708 105.055 100.708Z" fill="white" fill-opacity="0.8"/>
<path d="M151.66 97.936V100.414H156.042V102.01H151.66V106H149.826V96.34H156.728V97.936H151.66ZM163.819 104.124H159.717L159.017 106H157.057L161.019 96.34H162.517L166.479 106H164.519L163.819 104.124ZM163.245 102.598L161.761 98.664L160.291 102.598H163.245ZM168.056 96.34H169.89V104.404H174.874V106H168.056V96.34ZM180.267 106.154C178.97 106.154 177.957 105.799 177.229 105.09C176.511 104.381 176.151 103.321 176.151 101.912V100.4C176.151 98.9907 176.515 97.9313 177.243 97.222C177.971 96.5127 178.984 96.158 180.281 96.158C181.467 96.158 182.409 96.452 183.109 97.04C183.819 97.6187 184.173 98.426 184.173 99.462V99.574H182.339V99.518C182.339 98.9767 182.157 98.552 181.793 98.244C181.429 97.9267 180.925 97.768 180.281 97.768C179.516 97.768 178.942 97.992 178.559 98.44C178.186 98.888 177.999 99.574 177.999 100.498V101.884C177.999 102.771 178.191 103.429 178.573 103.858C178.956 104.287 179.53 104.502 180.295 104.502C180.939 104.502 181.439 104.353 181.793 104.054C182.157 103.746 182.339 103.326 182.339 102.794V102.724H184.159V102.794C184.159 103.858 183.809 104.684 183.109 105.272C182.409 105.86 181.462 106.154 180.267 106.154ZM190.247 106.154C188.997 106.154 188.021 105.799 187.321 105.09C186.621 104.381 186.271 103.321 186.271 101.912V100.4C186.271 98.9907 186.626 97.9313 187.335 97.222C188.054 96.5127 189.043 96.158 190.303 96.158C191.545 96.158 192.52 96.5127 193.229 97.222C193.939 97.9313 194.293 98.9907 194.293 100.4V101.912C194.293 103.312 193.929 104.371 193.201 105.09C192.483 105.799 191.498 106.154 190.247 106.154ZM190.303 104.502C191.741 104.502 192.459 103.629 192.459 101.884V100.498C192.459 98.678 191.741 97.768 190.303 97.768C189.566 97.768 189.015 97.992 188.651 98.44C188.297 98.888 188.119 99.574 188.119 100.498V101.884C188.119 102.771 188.297 103.429 188.651 103.858C189.015 104.287 189.566 104.502 190.303 104.502ZM204.581 96.34V106H202.747L198.281 99.602V106H196.447V96.34H198.281L202.747 102.752V96.34H204.581ZM218.577 96.34V106H216.743V101.912H212.669V106H210.835V96.34H212.669V100.316H216.743V96.34H218.577ZM222.762 97.936V100.33H227.116V101.926H222.762V104.404H227.83V106H220.928V96.34H227.83V97.936H222.762ZM235.837 104.124H231.735L231.035 106H229.075L233.037 96.34H234.535L238.497 106H236.537L235.837 104.124ZM235.263 102.598L233.779 98.664L232.309 102.598H235.263ZM238.538 96.34H240.498L242.836 103.298L245.188 96.34H247.148L243.564 106H242.094L238.538 96.34ZM253.085 102.01V106H251.251V102.024L247.961 96.34H250.033L252.161 100.386L254.289 96.34H256.361L253.085 102.01Z" fill="white" fill-opacity="0.8"/>
<path d="M297.826 96.34H301.592C302.88 96.34 303.874 96.6853 304.574 97.376C305.283 98.0667 305.638 99.1307 305.638 100.568V101.758C305.638 103.195 305.279 104.264 304.56 104.964C303.841 105.655 302.829 106 301.522 106H297.826V96.34ZM301.578 104.404C302.334 104.404 302.894 104.194 303.258 103.774C303.622 103.345 303.804 102.673 303.804 101.758V100.666C303.804 99.714 303.622 99.0233 303.258 98.594C302.894 98.1553 302.334 97.936 301.578 97.936H299.66V104.404H301.578ZM311.548 102.206H309.63V106H307.796V96.34H311.996C313.05 96.34 313.881 96.592 314.488 97.096C315.104 97.6 315.412 98.328 315.412 99.28C315.412 99.9707 315.244 100.545 314.908 101.002C314.581 101.45 314.096 101.777 313.452 101.982L315.846 106H313.662L311.548 102.206ZM309.63 100.638H312.052C313.078 100.638 313.592 100.185 313.592 99.28C313.592 98.832 313.456 98.496 313.186 98.272C312.915 98.048 312.537 97.936 312.052 97.936H309.63V100.638ZM323.784 104.124H319.682L318.982 106H317.022L320.984 96.34H322.482L326.444 106H324.484L323.784 104.124ZM323.21 102.598L321.726 98.664L320.256 102.598H323.21ZM331.726 106.154C330.438 106.154 329.43 105.799 328.702 105.09C327.974 104.381 327.61 103.321 327.61 101.912V100.4C327.61 98.9907 327.974 97.9313 328.702 97.222C329.43 96.5127 330.443 96.158 331.74 96.158C332.515 96.158 333.196 96.2887 333.784 96.55C334.372 96.802 334.825 97.1753 335.142 97.67C335.469 98.1647 335.632 98.748 335.632 99.42V99.532H333.798V99.476C333.798 98.9627 333.616 98.552 333.252 98.244C332.888 97.9267 332.384 97.768 331.74 97.768C330.975 97.768 330.401 97.992 330.018 98.44C329.645 98.8787 329.458 99.56 329.458 100.484V101.87C329.458 102.775 329.645 103.443 330.018 103.872C330.401 104.292 330.98 104.502 331.754 104.502C332.454 104.502 332.972 104.353 333.308 104.054C333.644 103.746 333.812 103.289 333.812 102.682V102.332H331.698V100.82H335.632V102.416C335.632 103.667 335.282 104.605 334.582 105.23C333.892 105.846 332.94 106.154 331.726 106.154ZM341.706 106.154C340.455 106.154 339.48 105.799 338.78 105.09C338.08 104.381 337.73 103.321 337.73 101.912V100.4C337.73 98.9907 338.085 97.9313 338.794 97.222C339.513 96.5127 340.502 96.158 341.762 96.158C343.003 96.158 343.979 96.5127 344.688 97.222C345.397 97.9313 345.752 98.9907 345.752 100.4V101.912C345.752 103.312 345.388 104.371 344.66 105.09C343.941 105.799 342.957 106.154 341.706 106.154ZM341.762 104.502C343.199 104.502 343.918 103.629 343.918 101.884V100.498C343.918 98.678 343.199 97.768 341.762 97.768C341.025 97.768 340.474 97.992 340.11 98.44C339.755 98.888 339.578 99.574 339.578 100.498V101.884C339.578 102.771 339.755 103.429 340.11 103.858C340.474 104.287 341.025 104.502 341.762 104.502ZM356.04 96.34V106H354.206L349.74 99.602V106H347.906V96.34H349.74L354.206 102.752V96.34H356.04Z" fill="white" fill-opacity="0.8"/>
<path d="M401.2 106.084C400.024 106.084 399.114 105.827 398.47 105.314C397.826 104.791 397.467 104.04 397.392 103.06H399.142C399.207 103.573 399.413 103.947 399.758 104.18C400.113 104.404 400.626 104.516 401.298 104.516C402.614 104.516 403.272 104.082 403.272 103.214C403.272 102.831 403.141 102.542 402.88 102.346C402.619 102.141 402.189 102.005 401.592 101.94L400.57 101.814C398.61 101.571 397.63 100.671 397.63 99.112C397.63 98.2067 397.957 97.4973 398.61 96.984C399.263 96.4613 400.155 96.2 401.284 96.2C402.376 96.2 403.23 96.4473 403.846 96.942C404.462 97.4367 404.807 98.1507 404.882 99.084H403.118C403.081 98.6173 402.908 98.2767 402.6 98.062C402.301 97.8473 401.849 97.74 401.242 97.74C400.635 97.74 400.178 97.8473 399.87 98.062C399.562 98.2767 399.408 98.58 399.408 98.972C399.408 99.3267 399.543 99.602 399.814 99.798C400.085 99.994 400.519 100.129 401.116 100.204L402.278 100.358C403.193 100.479 403.888 100.769 404.364 101.226C404.84 101.674 405.078 102.29 405.078 103.074C405.078 104.045 404.733 104.791 404.042 105.314C403.351 105.827 402.404 106.084 401.2 106.084ZM413.932 97.936H411.034V106H409.2V97.936H406.302V96.34H413.932V97.936ZM420.667 104.124H416.565L415.865 106H413.905L417.867 96.34H419.365L423.327 106H421.367L420.667 104.124ZM420.093 102.598L418.609 98.664L417.139 102.598H420.093ZM428.657 102.206H426.739V106H424.905V96.34H429.105C430.159 96.34 430.99 96.592 431.597 97.096C432.213 97.6 432.521 98.328 432.521 99.28C432.521 99.9707 432.353 100.545 432.017 101.002C431.69 101.45 431.205 101.777 430.561 101.982L432.955 106H430.771L428.657 102.206ZM426.739 100.638H429.161C430.187 100.638 430.701 100.185 430.701 99.28C430.701 98.832 430.565 98.496 430.295 98.272C430.024 98.048 429.646 97.936 429.161 97.936H426.739V100.638ZM438.275 106.084C437.099 106.084 436.189 105.827 435.545 105.314C434.901 104.791 434.542 104.04 434.467 103.06H436.217C436.283 103.573 436.488 103.947 436.833 104.18C437.188 104.404 437.701 104.516 438.373 104.516C439.689 104.516 440.347 104.082 440.347 103.214C440.347 102.831 440.217 102.542 439.955 102.346C439.694 102.141 439.265 102.005 438.667 101.94L437.645 101.814C435.685 101.571 434.705 100.671 434.705 99.112C434.705 98.2067 435.032 97.4973 435.685 96.984C436.339 96.4613 437.23 96.2 438.359 96.2C439.451 96.2 440.305 96.4473 440.921 96.942C441.537 97.4367 441.883 98.1507 441.957 99.084H440.193C440.156 98.6173 439.983 98.2767 439.675 98.062C439.377 97.8473 438.924 97.74 438.317 97.74C437.711 97.74 437.253 97.8473 436.945 98.062C436.637 98.2767 436.483 98.58 436.483 98.972C436.483 99.3267 436.619 99.602 436.889 99.798C437.16 99.994 437.594 100.129 438.191 100.204L439.353 100.358C440.268 100.479 440.963 100.769 441.439 101.226C441.915 101.674 442.153 102.29 442.153 103.074C442.153 104.045 441.808 104.791 441.117 105.314C440.427 105.827 439.479 106.084 438.275 106.084ZM451.861 96.34V106H450.027V101.912H445.953V106H444.119V96.34H445.953V100.316H450.027V96.34H451.861ZM454.296 96.34H456.13V106H454.296V96.34ZM462.734 96.34C463.817 96.34 464.661 96.6013 465.268 97.124C465.884 97.6467 466.192 98.3933 466.192 99.364C466.192 100.297 465.884 101.025 465.268 101.548C464.661 102.071 463.793 102.332 462.664 102.332H460.396V106H458.562V96.34H462.734ZM462.804 100.722C463.84 100.722 464.358 100.265 464.358 99.35C464.358 98.874 464.223 98.5193 463.952 98.286C463.681 98.0527 463.299 97.936 462.804 97.936H460.396V100.722H462.804Z" fill="white" fill-opacity="0.8"/>
<path d="M515.568 96.34V106H513.734V101.912H509.66V106H507.826V96.34H509.66V100.316H513.734V96.34H515.568ZM521.811 106.084C521.036 106.084 520.355 105.939 519.767 105.65C519.179 105.361 518.721 104.95 518.395 104.418C518.077 103.877 517.919 103.247 517.919 102.528V96.34H519.753V102.472C519.753 103.125 519.93 103.625 520.285 103.97C520.639 104.315 521.148 104.488 521.811 104.488C522.473 104.488 522.987 104.315 523.351 103.97C523.715 103.625 523.897 103.125 523.897 102.472V96.34H525.731V102.528C525.731 103.247 525.567 103.877 525.241 104.418C524.923 104.95 524.466 105.361 523.869 105.65C523.281 105.939 522.595 106.084 521.811 106.084ZM537.754 96.34V106H535.92V99.882L533.554 104.138H532.322L529.914 99.84V106H528.08V96.34H529.914L532.938 101.87L535.92 96.34H537.754ZM546.092 104.124H541.99L541.29 106H539.33L543.292 96.34H544.79L548.752 106H546.792L546.092 104.124ZM545.518 102.598L544.034 98.664L542.564 102.598H545.518ZM558.463 96.34V106H556.629L552.163 99.602V106H550.329V96.34H552.163L556.629 102.752V96.34H558.463ZM568.091 106.084C566.915 106.084 566.005 105.827 565.361 105.314C564.717 104.791 564.358 104.04 564.283 103.06H566.033C566.099 103.573 566.304 103.947 566.649 104.18C567.004 104.404 567.517 104.516 568.189 104.516C569.505 104.516 570.163 104.082 570.163 103.214C570.163 102.831 570.033 102.542 569.771 102.346C569.51 102.141 569.081 102.005 568.483 101.94L567.461 101.814C565.501 101.571 564.521 100.671 564.521 99.112C564.521 98.2067 564.848 97.4973 565.501 96.984C566.155 96.4613 567.046 96.2 568.175 96.2C569.267 96.2 570.121 96.4473 570.737 96.942C571.353 97.4367 571.699 98.1507 571.773 99.084H570.009C569.972 98.6173 569.799 98.2767 569.491 98.062C569.193 97.8473 568.74 97.74 568.133 97.74C567.527 97.74 567.069 97.8473 566.761 98.062C566.453 98.2767 566.299 98.58 566.299 98.972C566.299 99.3267 566.435 99.602 566.705 99.798C566.976 99.994 567.41 100.129 568.007 100.204L569.169 100.358C570.084 100.479 570.779 100.769 571.255 101.226C571.731 101.674 571.969 102.29 571.969 103.074C571.969 104.045 571.624 104.791 570.933 105.314C570.243 105.827 569.295 106.084 568.091 106.084ZM578.107 96.34C579.19 96.34 580.034 96.6013 580.641 97.124C581.257 97.6467 581.565 98.3933 581.565 99.364C581.565 100.297 581.257 101.025 580.641 101.548C580.034 102.071 579.166 102.332 578.037 102.332H575.769V106H573.935V96.34H578.107ZM578.177 100.722C579.213 100.722 579.731 100.265 579.731 99.35C579.731 98.874 579.596 98.5193 579.325 98.286C579.054 98.0527 578.672 97.936 578.177 97.936H575.769V100.722H578.177ZM588.748 104.124H584.646L583.946 106H581.986L585.948 96.34H587.446L591.408 106H589.448L588.748 104.124ZM588.174 102.598L586.69 98.664L585.22 102.598H588.174ZM596.69 106.154C595.393 106.154 594.38 105.799 593.652 105.09C592.933 104.381 592.574 103.321 592.574 101.912V100.4C592.574 98.9907 592.938 97.9313 593.666 97.222C594.394 96.5127 595.407 96.158 596.704 96.158C597.889 96.158 598.832 96.452 599.532 97.04C600.241 97.6187 600.596 98.426 600.596 99.462V99.574H598.762V99.518C598.762 98.9767 598.58 98.552 598.216 98.244C597.852 97.9267 597.348 97.768 596.704 97.768C595.939 97.768 595.365 97.992 594.982 98.44C594.609 98.888 594.422 99.574 594.422 100.498V101.884C594.422 102.771 594.613 103.429 594.996 103.858C595.379 104.287 595.953 104.502 596.718 104.502C597.362 104.502 597.861 104.353 598.216 104.054C598.58 103.746 598.762 103.326 598.762 102.794V102.724H600.582V102.794C600.582 103.858 600.232 104.684 599.532 105.272C598.832 105.86 597.885 106.154 596.69 106.154ZM604.584 97.936V100.33H608.938V101.926H604.584V104.404H609.652V106H602.75V96.34H609.652V97.936H604.584ZM613.501 97.936V100.414H617.883V102.01H613.501V106H611.667V96.34H618.569V97.936H613.501ZM620.378 96.34H622.212V104.404H627.196V106H620.378V96.34ZM629.147 96.34H630.981V106H629.147V96.34ZM637.473 106.154C636.185 106.154 635.177 105.799 634.449 105.09C633.721 104.381 633.357 103.321 633.357 101.912V100.4C633.357 98.9907 633.721 97.9313 634.449 97.222C635.177 96.5127 636.19 96.158 637.487 96.158C638.262 96.158 638.943 96.2887 639.531 96.55C640.119 96.802 640.572 97.1753 640.889 97.67C641.216 98.1647 641.379 98.748 641.379 99.42V99.532H639.545V99.476C639.545 98.9627 639.363 98.552 638.999 98.244C638.635 97.9267 638.131 97.768 637.487 97.768C636.722 97.768 636.148 97.992 635.765 98.44C635.392 98.8787 635.205 99.56 635.205 100.484V101.87C635.205 102.775 635.392 103.443 635.765 103.872C636.148 104.292 636.726 104.502 637.501 104.502C638.201 104.502 638.719 104.353 639.055 104.054C639.391 103.746 639.559 103.289 639.559 102.682V102.332H637.445V100.82H641.379V102.416C641.379 103.667 641.029 104.605 640.329 105.23C639.638 105.846 638.686 106.154 637.473 106.154ZM651.275 96.34V106H649.441V101.912H645.367V106H643.533V96.34H645.367V100.316H649.441V96.34H651.275ZM660.514 97.936H657.616V106H655.782V97.936H652.884V96.34H660.514V97.936Z" fill="white" fill-opacity="0.8"/>
<path d="M705.578 102.206H703.66V106H701.826V96.34H706.026C707.081 96.34 707.911 96.592 708.518 97.096C709.134 97.6 709.442 98.328 709.442 99.28C709.442 99.9707 709.274 100.545 708.938 101.002C708.611 101.45 708.126 101.777 707.482 101.982L709.876 106H707.692L705.578 102.206ZM703.66 100.638H706.082C707.109 100.638 707.622 100.185 707.622 99.28C707.622 98.832 707.487 98.496 707.216 98.272C706.945 98.048 706.567 97.936 706.082 97.936H703.66V100.638ZM711.77 96.34H713.604V106H711.77V96.34ZM716.037 96.34H719.803C721.091 96.34 722.085 96.6853 722.785 97.376C723.494 98.0667 723.849 99.1307 723.849 100.568V101.758C723.849 103.195 723.489 104.264 722.771 104.964C722.052 105.655 721.039 106 719.733 106H716.037V96.34ZM719.789 104.404C720.545 104.404 721.105 104.194 721.469 103.774C721.833 103.345 722.015 102.673 722.015 101.758V100.666C722.015 99.714 721.833 99.0233 721.469 98.594C721.105 98.1553 720.545 97.936 719.789 97.936H717.871V104.404H719.789ZM727.84 97.936V100.33H732.194V101.926H727.84V104.404H732.908V106H726.006V96.34H732.908V97.936H727.84ZM738.297 106.084C737.121 106.084 736.211 105.827 735.567 105.314C734.923 104.791 734.564 104.04 734.489 103.06H736.239C736.304 103.573 736.51 103.947 736.855 104.18C737.21 104.404 737.723 104.516 738.395 104.516C739.711 104.516 740.369 104.082 740.369 103.214C740.369 102.831 740.238 102.542 739.977 102.346C739.716 102.141 739.286 102.005 738.689 101.94L737.667 101.814C735.707 101.571 734.727 100.671 734.727 99.112C734.727 98.2067 735.054 97.4973 735.707 96.984C736.36 96.4613 737.252 96.2 738.381 96.2C739.473 96.2 740.327 96.4473 740.943 96.942C741.559 97.4367 741.904 98.1507 741.979 99.084H740.215C740.178 98.6173 740.005 98.2767 739.697 98.062C739.398 97.8473 738.946 97.74 738.339 97.74C737.732 97.74 737.275 97.8473 736.967 98.062C736.659 98.2767 736.505 98.58 736.505 98.972C736.505 99.3267 736.64 99.602 736.911 99.798C737.182 99.994 737.616 100.129 738.213 100.204L739.375 100.358C740.29 100.479 740.985 100.769 741.461 101.226C741.937 101.674 742.175 102.29 742.175 103.074C742.175 104.045 741.83 104.791 741.139 105.314C740.448 105.827 739.501 106.084 738.297 106.084ZM751.882 96.34V106H750.048V101.912H745.974V106H744.14V96.34H745.974V100.316H750.048V96.34H751.882ZM760.225 104.124H756.123L755.423 106H753.463L757.425 96.34H758.923L762.885 106H760.925L760.225 104.124ZM759.651 102.598L758.167 98.664L756.697 102.598H759.651ZM768.214 102.206H766.296V106H764.462V96.34H768.662C769.717 96.34 770.548 96.592 771.154 97.096C771.77 97.6 772.078 98.328 772.078 99.28C772.078 99.9707 771.91 100.545 771.574 101.002C771.248 101.45 770.762 101.777 770.118 101.982L772.512 106H770.328L768.214 102.206ZM766.296 100.638H768.718C769.745 100.638 770.258 100.185 770.258 99.28C770.258 98.832 770.123 98.496 769.852 98.272C769.582 98.048 769.204 97.936 768.718 97.936H766.296V100.638ZM776.156 97.936V100.33H780.51V101.926H776.156V104.404H781.224V106H774.322V96.34H781.224V97.936H776.156Z" fill="white" fill-opacity="0.8"/>
<path d="M826.2 106.084C825.024 106.084 824.114 105.827 823.47 105.314C822.826 104.791 822.467 104.04 822.392 103.06H824.142C824.207 103.573 824.413 103.947 824.758 104.18C825.113 104.404 825.626 104.516 826.298 104.516C827.614 104.516 828.272 104.082 828.272 103.214C828.272 102.831 828.141 102.542 827.88 102.346C827.619 102.141 827.189 102.005 826.592 101.94L825.57 101.814C823.61 101.571 822.63 100.671 822.63 99.112C822.63 98.2067 822.957 97.4973 823.61 96.984C824.263 96.4613 825.155 96.2 826.284 96.2C827.376 96.2 828.23 96.4473 828.846 96.942C829.462 97.4367 829.807 98.1507 829.882 99.084H828.118C828.081 98.6173 827.908 98.2767 827.6 98.062C827.301 97.8473 826.849 97.74 826.242 97.74C825.635 97.74 825.178 97.8473 824.87 98.062C824.562 98.2767 824.408 98.58 824.408 98.972C824.408 99.3267 824.543 99.602 824.814 99.798C825.085 99.994 825.519 100.129 826.116 100.204L827.278 100.358C828.193 100.479 828.888 100.769 829.364 101.226C829.84 101.674 830.078 102.29 830.078 103.074C830.078 104.045 829.733 104.791 829.042 105.314C828.351 105.827 827.404 106.084 826.2 106.084ZM839.786 96.34V106H837.952V101.912H833.878V106H832.044V96.34H833.878V100.316H837.952V96.34H839.786ZM846.056 106.154C844.805 106.154 843.83 105.799 843.13 105.09C842.43 104.381 842.08 103.321 842.08 101.912V100.4C842.08 98.9907 842.435 97.9313 843.144 97.222C843.863 96.5127 844.852 96.158 846.112 96.158C847.353 96.158 848.329 96.5127 849.038 97.222C849.747 97.9313 850.102 98.9907 850.102 100.4V101.912C850.102 103.312 849.738 104.371 849.01 105.09C848.291 105.799 847.307 106.154 846.056 106.154ZM846.112 104.502C847.549 104.502 848.268 103.629 848.268 101.884V100.498C848.268 98.678 847.549 97.768 846.112 97.768C845.375 97.768 844.824 97.992 844.46 98.44C844.105 98.888 843.928 99.574 843.928 100.498V101.884C843.928 102.771 844.105 103.429 844.46 103.858C844.824 104.287 845.375 104.502 846.112 104.502ZM856.428 96.34C857.511 96.34 858.355 96.6013 858.962 97.124C859.578 97.6467 859.886 98.3933 859.886 99.364C859.886 100.297 859.578 101.025 858.962 101.548C858.355 102.071 857.487 102.332 856.358 102.332H854.09V106H852.256V96.34H856.428ZM856.498 100.722C857.534 100.722 858.052 100.265 858.052 99.35C858.052 98.874 857.917 98.5193 857.646 98.286C857.375 98.0527 856.993 97.936 856.498 97.936H854.09V100.722H856.498Z" fill="white" fill-opacity="0.8"/>
<rect width="1072" height="1" transform="translate(40 161)" fill="white" fill-opacity="0.2"/>
<rect width="64" height="1.5" transform="translate(1048 162)" fill="white" fill-opacity="0.2"/>
<path d="M43.6 198.072C42.592 198.072 41.812 197.852 41.26 197.412C40.708 196.964 40.4 196.32 40.336 195.48H41.836C41.892 195.92 42.068 196.24 42.364 196.44C42.668 196.632 43.108 196.728 43.684 196.728C44.812 196.728 45.376 196.356 45.376 195.612C45.376 195.284 45.264 195.036 45.04 194.868C44.816 194.692 44.448 194.576 43.936 194.52L43.06 194.412C41.38 194.204 40.54 193.432 40.54 192.096C40.54 191.32 40.82 190.712 41.38 190.272C41.94 189.824 42.704 189.6 43.672 189.6C44.608 189.6 45.34 189.812 45.868 190.236C46.396 190.66 46.692 191.272 46.756 192.072H45.244C45.212 191.672 45.064 191.38 44.8 191.196C44.544 191.012 44.156 190.92 43.636 190.92C43.116 190.92 42.724 191.012 42.46 191.196C42.196 191.38 42.064 191.64 42.064 191.976C42.064 192.28 42.18 192.516 42.412 192.684C42.644 192.852 43.016 192.968 43.528 193.032L44.524 193.164C45.308 193.268 45.904 193.516 46.312 193.908C46.72 194.292 46.924 194.82 46.924 195.492C46.924 196.324 46.628 196.964 46.036 197.412C45.444 197.852 44.632 198.072 43.6 198.072ZM52.1848 189.72C53.1128 189.72 53.8368 189.944 54.3568 190.392C54.8848 190.84 55.1488 191.48 55.1488 192.312C55.1488 193.112 54.8848 193.736 54.3568 194.184C53.8368 194.632 53.0928 194.856 52.1248 194.856H50.1808V198H48.6088V189.72H52.1848ZM52.2448 193.476C53.1328 193.476 53.5768 193.084 53.5768 192.3C53.5768 191.892 53.4608 191.588 53.2288 191.388C52.9968 191.188 52.6688 191.088 52.2448 191.088H50.1808V193.476H52.2448ZM61.3057 196.392H57.7897L57.1897 198H55.5097L58.9057 189.72H60.1897L63.5857 198H61.9057L61.3057 196.392ZM60.8137 195.084L59.5417 191.712L58.2817 195.084H60.8137ZM68.113 198.132C67.001 198.132 66.133 197.828 65.509 197.22C64.893 196.612 64.585 195.704 64.585 194.496V193.2C64.585 191.992 64.897 191.084 65.521 190.476C66.145 189.868 67.013 189.564 68.125 189.564C69.141 189.564 69.949 189.816 70.549 190.32C71.157 190.816 71.461 191.508 71.461 192.396V192.492H69.889V192.444C69.889 191.98 69.733 191.616 69.421 191.352C69.109 191.08 68.677 190.944 68.125 190.944C67.469 190.944 66.977 191.136 66.649 191.52C66.329 191.904 66.169 192.492 66.169 193.284V194.472C66.169 195.232 66.333 195.796 66.661 196.164C66.989 196.532 67.481 196.716 68.137 196.716C68.689 196.716 69.117 196.588 69.421 196.332C69.733 196.068 69.889 195.708 69.889 195.252V195.192H71.449V195.252C71.449 196.164 71.149 196.872 70.549 197.376C69.949 197.88 69.137 198.132 68.113 198.132ZM74.8792 191.088V193.14H78.6112V194.508H74.8792V196.632H79.2232V198H73.3072V189.72H79.2232V191.088H74.8792ZM83.2782 193.704L80.5062 189.72H82.4382L84.2742 192.456L85.9902 189.72H87.8862L85.1622 193.632L88.1862 198H86.2542L84.1782 194.892L82.1862 198H80.2902L83.2782 193.704ZM96.9406 198.108C96.1166 198.108 95.3926 197.932 94.7686 197.58C94.1526 197.228 93.6766 196.736 93.3406 196.104C93.0046 195.464 92.8366 194.728 92.8366 193.896C92.8366 193.056 93.0046 192.32 93.3406 191.688C93.6766 191.048 94.1526 190.556 94.7686 190.212C95.3926 189.86 96.1166 189.684 96.9406 189.684C97.7646 189.684 98.4846 189.86 99.1006 190.212C99.7246 190.564 100.205 191.06 100.541 191.7C100.877 192.332 101.045 193.064 101.045 193.896C101.045 194.728 100.877 195.464 100.541 196.104C100.205 196.736 99.7246 197.228 99.1006 197.58C98.4846 197.932 97.7646 198.108 96.9406 198.108ZM96.9406 197.184C97.9166 197.184 98.6806 196.892 99.2326 196.308C99.7926 195.716 100.073 194.912 100.073 193.896C100.073 192.88 99.7926 192.076 99.2326 191.484C98.6806 190.892 97.9166 190.596 96.9406 190.596C95.9646 190.596 95.1966 190.892 94.6366 191.484C94.0846 192.076 93.8086 192.88 93.8086 193.896C93.8086 194.912 94.0846 195.716 94.6366 196.308C95.1966 196.892 95.9646 197.184 96.9406 197.184ZM96.9406 196.224C96.3326 196.224 95.8486 196.048 95.4886 195.696C95.1366 195.344 94.9606 194.832 94.9606 194.16V193.632C94.9606 192.96 95.1366 192.448 95.4886 192.096C95.8486 191.744 96.3326 191.568 96.9406 191.568C97.5406 191.568 98.0126 191.716 98.3566 192.012C98.7086 192.308 98.8846 192.712 98.8846 193.224V193.284H97.8406V193.248C97.8406 193.024 97.7606 192.848 97.6006 192.72C97.4486 192.592 97.2406 192.528 96.9766 192.528C96.6646 192.528 96.4286 192.616 96.2686 192.792C96.1086 192.968 96.0286 193.252 96.0286 193.644V194.16C96.0286 194.552 96.1086 194.836 96.2686 195.012C96.4366 195.188 96.6806 195.276 97.0006 195.276C97.2566 195.276 97.4606 195.216 97.6126 195.096C97.7646 194.968 97.8406 194.796 97.8406 194.58V194.544H98.8846V194.58C98.8846 195.092 98.7086 195.496 98.3566 195.792C98.0126 196.08 97.5406 196.224 96.9406 196.224ZM106.177 196.752L109.273 193.44C109.537 193.184 109.721 192.956 109.825 192.756C109.929 192.548 109.981 192.324 109.981 192.084V191.952C109.981 191.632 109.873 191.38 109.657 191.196C109.449 191.012 109.161 190.92 108.793 190.92C108.433 190.92 108.149 191.008 107.941 191.184C107.733 191.36 107.629 191.604 107.629 191.916V192.108H106.129V191.82C106.129 191.14 106.369 190.6 106.849 190.2C107.329 189.792 107.985 189.588 108.817 189.588C109.377 189.588 109.865 189.688 110.281 189.888C110.697 190.08 111.013 190.352 111.229 190.704C111.453 191.056 111.565 191.46 111.565 191.916V192.072C111.565 192.496 111.481 192.88 111.313 193.224C111.145 193.568 110.885 193.916 110.533 194.268L108.301 196.62H111.577V198H106.177V196.752ZM116.1 198.132C114.244 198.132 113.316 197.12 113.316 195.096V192.528C113.316 191.56 113.552 190.828 114.024 190.332C114.496 189.836 115.188 189.588 116.1 189.588C117.028 189.588 117.724 189.836 118.188 190.332C118.652 190.828 118.884 191.56 118.884 192.528V195.096C118.884 196.096 118.652 196.852 118.188 197.364C117.724 197.876 117.028 198.132 116.1 198.132ZM116.1 196.764C116.54 196.764 116.852 196.624 117.036 196.344C117.22 196.056 117.312 195.596 117.312 194.964V192.756C117.312 192.124 117.216 191.668 117.024 191.388C116.84 191.108 116.532 190.968 116.1 190.968C115.668 190.968 115.36 191.108 115.176 191.388C114.992 191.668 114.9 192.124 114.9 192.756V194.964C114.9 195.596 114.992 196.056 115.176 196.344C115.36 196.624 115.668 196.764 116.1 196.764ZM120.678 196.752L123.774 193.44C124.038 193.184 124.222 192.956 124.326 192.756C124.43 192.548 124.482 192.324 124.482 192.084V191.952C124.482 191.632 124.374 191.38 124.158 191.196C123.95 191.012 123.662 190.92 123.294 190.92C122.934 190.92 122.65 191.008 122.442 191.184C122.234 191.36 122.13 191.604 122.13 191.916V192.108H120.63V191.82C120.63 191.14 120.87 190.6 121.35 190.2C121.83 189.792 122.486 189.588 123.318 189.588C123.878 189.588 124.366 189.688 124.782 189.888C125.198 190.08 125.514 190.352 125.73 190.704C125.954 191.056 126.066 191.46 126.066 191.916V192.072C126.066 192.496 125.982 192.88 125.814 193.224C125.646 193.568 125.386 193.916 125.034 194.268L122.802 196.62H126.078V198H120.678V196.752ZM129.353 191.364L127.589 192.384V190.764L129.353 189.72H130.925V198H129.353V191.364Z" fill="white" fill-opacity="0.6"/>
<path d="M147.54 189.66H148.8L145.8 198.12H144.552L147.54 189.66ZM153.484 189.66H154.744L151.744 198.12H150.496L153.484 189.66Z" fill="white" fill-opacity="0.6"/>
<path d="M172.284 189.72C173.212 189.72 173.936 189.944 174.456 190.392C174.984 190.84 175.248 191.48 175.248 192.312C175.248 193.112 174.984 193.736 174.456 194.184C173.936 194.632 173.192 194.856 172.224 194.856H170.28V198H168.708V189.72H172.284ZM172.344 193.476C173.232 193.476 173.676 193.084 173.676 192.3C173.676 191.892 173.56 191.588 173.328 191.388C173.096 191.188 172.768 191.088 172.344 191.088H170.28V193.476H172.344ZM180.059 194.748H178.415V198H176.843V189.72H180.443C181.347 189.72 182.059 189.936 182.579 190.368C183.107 190.8 183.371 191.424 183.371 192.24C183.371 192.832 183.227 193.324 182.939 193.716C182.659 194.1 182.243 194.38 181.691 194.556L183.743 198H181.871L180.059 194.748ZM178.415 193.404H180.491C181.371 193.404 181.811 193.016 181.811 192.24C181.811 191.856 181.695 191.568 181.463 191.376C181.231 191.184 180.907 191.088 180.491 191.088H178.415V193.404ZM185.367 189.72H186.939V198H185.367V189.72ZM188.364 189.72H190.044L192.048 195.684L194.064 189.72H195.744L192.672 198H191.412L188.364 189.72ZM201.58 196.392H198.064L197.464 198H195.784L199.18 189.72H200.464L203.86 198H202.18L201.58 196.392ZM201.088 195.084L199.816 191.712L198.556 195.084H201.088ZM208.387 198.132C207.275 198.132 206.407 197.828 205.783 197.22C205.167 196.612 204.859 195.704 204.859 194.496V193.2C204.859 191.992 205.171 191.084 205.795 190.476C206.419 189.868 207.287 189.564 208.399 189.564C209.415 189.564 210.223 189.816 210.823 190.32C211.431 190.816 211.735 191.508 211.735 192.396V192.492H210.163V192.444C210.163 191.98 210.007 191.616 209.695 191.352C209.383 191.08 208.951 190.944 208.399 190.944C207.743 190.944 207.251 191.136 206.923 191.52C206.603 191.904 206.443 192.492 206.443 193.284V194.472C206.443 195.232 206.607 195.796 206.935 196.164C207.263 196.532 207.755 196.716 208.411 196.716C208.963 196.716 209.391 196.588 209.695 196.332C210.007 196.068 210.163 195.708 210.163 195.252V195.192H211.723V195.252C211.723 196.164 211.423 196.872 210.823 197.376C210.223 197.88 209.411 198.132 208.387 198.132ZM217.313 194.58V198H215.741V194.592L212.921 189.72H214.697L216.521 193.188L218.345 189.72H220.121L217.313 194.58ZM228.4 189.72C229.328 189.72 230.052 189.944 230.572 190.392C231.1 190.84 231.364 191.48 231.364 192.312C231.364 193.112 231.1 193.736 230.572 194.184C230.052 194.632 229.308 194.856 228.34 194.856H226.396V198H224.824V189.72H228.4ZM228.46 193.476C229.348 193.476 229.792 193.084 229.792 192.3C229.792 191.892 229.676 191.588 229.444 191.388C229.212 191.188 228.884 191.088 228.46 191.088H226.396V193.476H228.46ZM236.202 198.132C235.13 198.132 234.294 197.828 233.694 197.22C233.094 196.612 232.794 195.704 232.794 194.496V193.2C232.794 191.992 233.098 191.084 233.706 190.476C234.322 189.868 235.17 189.564 236.25 189.564C237.314 189.564 238.15 189.868 238.758 190.476C239.366 191.084 239.67 191.992 239.67 193.2V194.496C239.67 195.696 239.358 196.604 238.734 197.22C238.118 197.828 237.274 198.132 236.202 198.132ZM236.25 196.716C237.482 196.716 238.098 195.968 238.098 194.472V193.284C238.098 191.724 237.482 190.944 236.25 190.944C235.618 190.944 235.146 191.136 234.834 191.52C234.53 191.904 234.378 192.492 234.378 193.284V194.472C234.378 195.232 234.53 195.796 234.834 196.164C235.146 196.532 235.618 196.716 236.25 196.716ZM241.517 189.72H243.089V196.632H247.361V198H241.517V189.72ZM249.032 189.72H250.604V198H249.032V189.72ZM256.169 198.132C255.057 198.132 254.189 197.828 253.565 197.22C252.949 196.612 252.641 195.704 252.641 194.496V193.2C252.641 191.992 252.953 191.084 253.577 190.476C254.201 189.868 255.069 189.564 256.181 189.564C257.197 189.564 258.005 189.816 258.605 190.32C259.213 190.816 259.517 191.508 259.517 192.396V192.492H257.945V192.444C257.945 191.98 257.789 191.616 257.477 191.352C257.165 191.08 256.733 190.944 256.181 190.944C255.525 190.944 255.033 191.136 254.705 191.52C254.385 191.904 254.225 192.492 254.225 193.284V194.472C254.225 195.232 254.389 195.796 254.717 196.164C255.045 196.532 255.537 196.716 256.193 196.716C256.745 196.716 257.173 196.588 257.477 196.332C257.789 196.068 257.945 195.708 257.945 195.252V195.192H259.505V195.252C259.505 196.164 259.205 196.872 258.605 197.376C258.005 197.88 257.193 198.132 256.169 198.132ZM265.095 194.58V198H263.523V194.592L260.703 189.72H262.479L264.303 193.188L266.127 189.72H267.903L265.095 194.58Z" fill="white" fill-opacity="0.6"/>
<path d="M963 190.406C961 190.406 959.406 192.031 959.406 194C959.406 196 961 197.594 963 197.594C964.969 197.594 966.594 196 966.594 194C966.594 192.031 964.969 190.406 963 190.406ZM963 196.344C961.719 196.344 960.656 195.312 960.656 194C960.656 192.719 961.688 191.688 963 191.688C964.281 191.688 965.312 192.719 965.312 194C965.312 195.312 964.281 196.344 963 196.344ZM967.562 190.281C967.562 189.812 967.188 189.438 966.719 189.438C966.25 189.438 965.875 189.812 965.875 190.281C965.875 190.75 966.25 191.125 966.719 191.125C967.188 191.125 967.562 190.75 967.562 190.281ZM969.938 191.125C969.875 190 969.625 189 968.812 188.188C968 187.375 967 187.125 965.875 187.062C964.719 187 961.25 187 960.094 187.062C958.969 187.125 958 187.375 957.156 188.188C956.344 189 956.094 190 956.031 191.125C955.969 192.281 955.969 195.75 956.031 196.906C956.094 198.031 956.344 199 957.156 199.844C958 200.656 958.969 200.906 960.094 200.969C961.25 201.031 964.719 201.031 965.875 200.969C967 200.906 968 200.656 968.812 199.844C969.625 199 969.875 198.031 969.938 196.906C970 195.75 970 192.281 969.938 191.125ZM968.438 198.125C968.219 198.75 967.719 199.219 967.125 199.469C966.188 199.844 964 199.75 963 199.75C961.969 199.75 959.781 199.844 958.875 199.469C958.25 199.219 957.781 198.75 957.531 198.125C957.156 197.219 957.25 195.031 957.25 194C957.25 193 957.156 190.812 957.531 189.875C957.781 189.281 958.25 188.812 958.875 188.562C959.781 188.188 961.969 188.281 963 188.281C964 188.281 966.188 188.188 967.125 188.562C967.719 188.781 968.188 189.281 968.438 189.875C968.812 190.812 968.719 193 968.719 194C968.719 195.031 968.812 197.219 968.438 198.125Z" fill="white" fill-opacity="0.6"/>
<path d="M1004.34 190.75C1004.97 190.281 1005.53 189.719 1005.97 189.062C1005.41 189.312 1004.75 189.5 1004.09 189.562C1004.78 189.156 1005.28 188.531 1005.53 187.75C1004.91 188.125 1004.19 188.406 1003.47 188.562C1002.84 187.906 1002 187.531 1001.06 187.531C999.25 187.531 997.781 189 997.781 190.812C997.781 191.062 997.812 191.312 997.875 191.562C995.156 191.406 992.719 190.094 991.094 188.125C990.812 188.594 990.656 189.156 990.656 189.781C990.656 190.906 991.219 191.906 992.125 192.5C991.594 192.469 991.062 192.344 990.625 192.094V192.125C990.625 193.719 991.75 195.031 993.25 195.344C993 195.406 992.688 195.469 992.406 195.469C992.188 195.469 992 195.438 991.781 195.406C992.188 196.719 993.406 197.656 994.844 197.688C993.719 198.562 992.312 199.094 990.781 199.094C990.5 199.094 990.25 199.062 990 199.031C991.438 199.969 993.156 200.5 995.031 200.5C1001.06 200.5 1004.34 195.531 1004.34 191.188C1004.34 191.031 1004.34 190.906 1004.34 190.75Z" fill="white" fill-opacity="0.6"/>
<path d="M1043.16 189.906C1042.97 189.156 1042.38 188.562 1041.66 188.375C1040.31 188 1035 188 1035 188C1035 188 1029.66 188 1028.31 188.375C1027.59 188.562 1027 189.156 1026.81 189.906C1026.44 191.219 1026.44 194.031 1026.44 194.031C1026.44 194.031 1026.44 196.812 1026.81 198.156C1027 198.906 1027.59 199.469 1028.31 199.656C1029.66 200 1035 200 1035 200C1035 200 1040.31 200 1041.66 199.656C1042.38 199.469 1042.97 198.906 1043.16 198.156C1043.53 196.812 1043.53 194.031 1043.53 194.031C1043.53 194.031 1043.53 191.219 1043.16 189.906ZM1033.25 196.562V191.5L1037.69 194.031L1033.25 196.562Z" fill="white" fill-opacity="0.6"/>
<path d="M1076.5 187H1065.5C1064.66 187 1064 187.688 1064 188.5V199.5C1064 200.344 1064.66 201 1065.5 201H1076.5C1077.31 201 1078 200.344 1078 199.5V188.5C1078 187.688 1077.31 187 1076.5 187ZM1068.5 195.969C1067.41 195.969 1066.53 195.094 1066.53 194C1066.53 192.906 1067.41 192 1068.5 192C1069.59 192 1070.5 192.906 1070.5 194C1070.5 195.094 1069.59 195.969 1068.5 195.969ZM1073.47 195.969C1072.38 195.969 1071.5 195.094 1071.5 194C1071.5 192.906 1072.38 192 1073.47 192C1074.56 192 1075.47 192.906 1075.47 194C1075.47 195.094 1074.56 195.969 1073.47 195.969Z" fill="white" fill-opacity="0.6"/>
<path d="M1101.12 200V190.656H1098.22V200H1101.12ZM1099.66 189.406C1100.59 189.406 1101.34 188.625 1101.34 187.688C1101.34 186.781 1100.59 186.031 1099.66 186.031C1098.75 186.031 1098 186.781 1098 187.688C1098 188.625 1098.75 189.406 1099.66 189.406ZM1111.97 200H1112V194.875C1112 192.375 1111.44 190.438 1108.5 190.438C1107.09 190.438 1106.16 191.219 1105.75 191.938H1105.72V190.656H1102.94V200H1105.84V195.375C1105.84 194.156 1106.06 193 1107.56 193C1109.06 193 1109.09 194.375 1109.09 195.469V200H1111.97Z" fill="white" fill-opacity="0.6"/>
</svg>
